<svg width="16" height="32" viewBox="0 0 16 32" fill="none" xmlns="http://www.w3.org/2000/svg">
<path d="M15.6403 0.914045L15.6434 0.914407L15.5201 5.65835L15.3113 5.6566C15.129 5.65514 14.8673 5.65319 14.5496 5.65125C13.9141 5.64736 13.0542 5.64347 12.1568 5.64347C11.1769 5.64347 10.584 5.86261 10.2415 6.28786C9.90242 6.70881 9.82597 7.31256 9.82597 8.03499V11.8592V11.9367H9.90347H15.6686L15.4218 17.019H9.90347H9.82597V17.0965V31.5651H4.28429V17.0965V17.019H4.20679H0.3275V11.9367H4.20679H4.28429V11.8592V7.38585C4.28429 5.6453 4.86275 3.98056 6.1032 2.75107C7.34323 1.52199 9.25271 0.720078 11.9297 0.720078C13.0176 0.720078 13.9639 0.770773 14.6381 0.821462C14.9751 0.846805 15.2441 0.872141 15.4287 0.891126C15.521 0.900618 15.5922 0.908522 15.6403 0.914045Z" fill="#72D2CB" stroke="#72D2CB" stroke-width="0.155"/>
</svg>
